<svg xmlns="http://www.w3.org/2000/svg" xmlns:xlink="http://www.w3.org/1999/xlink" contentStyleType="text/css" height="2118px" preserveAspectRatio="none" style="width:648px;height:2118px;background:#FFFFFF;" version="1.1" viewBox="0 0 648 2118" width="648px" zoomAndPan="magnify"><defs/><g><ellipse cx="316.8691" cy="20" fill="#222222" rx="10" ry="10" style="stroke:#222222;stroke-width:1.0;"/><rect fill="#F1F1F1" height="33.9688" rx="12.5" ry="12.5" style="stroke:#181818;stroke-width:0.5;" width="166.373" x="233.6826" y="50"/><text fill="#000000" font-family="sans-serif" font-size="12" lengthAdjust="spacing" textLength="146.373" x="243.6826" y="71.1387">&#1042;&#1074;&#1077;&#1089;&#1090;&#1080; A &#1080; B (10..1000)</text><rect fill="#F1F1F1" height="33.9688" rx="12.5" ry="12.5" style="stroke:#181818;stroke-width:0.5;" width="228.4121" x="202.6631" y="103.9688"/><text fill="#000000" font-family="sans-serif" font-size="12" lengthAdjust="spacing" textLength="208.4121" x="212.6631" y="125.1074">sumA = sumB = kA = kB = sB = 0</text><rect fill="#F1F1F1" height="33.9688" rx="12.5" ry="12.5" style="stroke:#181818;stroke-width:0.5;" width="86.4453" x="273.6465" y="157.9375"/><text fill="#000000" font-family="sans-serif" font-size="12" lengthAdjust="spacing" textLength="66.4453" x="283.6465" y="179.0762">p = pA = 1</text><rect fill="#F1F1F1" height="33.9688" rx="12.5" ry="12.5" style="stroke:#181818;stroke-width:0.5;" width="84.8281" x="274.4551" y="316.019"/><text fill="#000000" font-family="sans-serif" font-size="12" lengthAdjust="spacing" textLength="64.8281" x="284.4551" y="337.1577">sumA += i</text><rect fill="#F1F1F1" height="33.9688" rx="12.5" ry="12.5" style="stroke:#181818;stroke-width:0.5;" width="55.2676" x="289.2354" y="369.9878"/><text fill="#000000" font-family="sans-serif" font-size="12" lengthAdjust="spacing" textLength="35.2676" x="299.2354" y="391.1265">kA++</text><rect fill="#F1F1F1" height="33.9688" rx="12.5" ry="12.5" style="stroke:#181818;stroke-width:0.5;" width="62.8438" x="285.4473" y="475.9409"/><text fill="#000000" font-family="sans-serif" font-size="12" lengthAdjust="spacing" textLength="42.8438" x="295.4473" y="497.0796">pA *= i</text><polygon fill="#F1F1F1" points="289.3101,427.5386,344.4282,427.5386,356.4282,439.5386,344.4282,451.5386,289.3101,451.5386,277.3101,439.5386,289.3101,427.5386" style="stroke:#181818;stroke-width:0.5;"/><text fill="#000000" font-family="sans-serif" font-size="11" lengthAdjust="spacing" textLength="19.0083" x="320.8691" y="461.749">yes</text><text fill="#000000" font-family="sans-serif" font-size="11" lengthAdjust="spacing" textLength="55.1182" x="289.3101" y="443.3467">i % 2 != 0</text><polygon fill="#F1F1F1" points="316.8691,529.9097,328.8691,541.9097,316.8691,553.9097,304.8691,541.9097,316.8691,529.9097" style="stroke:#181818;stroke-width:0.5;"/><polygon fill="#F1F1F1" points="286.6433,267.6167,347.095,267.6167,359.095,279.6167,347.095,291.6167,286.6433,291.6167,274.6433,279.6167,286.6433,267.6167" style="stroke:#181818;stroke-width:0.5;"/><text fill="#000000" font-family="sans-serif" font-size="11" lengthAdjust="spacing" textLength="19.0083" x="320.8691" y="301.8271">yes</text><text fill="#000000" font-family="sans-serif" font-size="11" lengthAdjust="spacing" textLength="60.4517" x="286.6433" y="283.4248">A % i == 0</text><polygon fill="#F1F1F1" points="316.8691,573.9097,328.8691,585.9097,316.8691,597.9097,304.8691,585.9097,316.8691,573.9097" style="stroke:#181818;stroke-width:0.5;"/><rect fill="#F1F1F1" height="33.9688" rx="12.5" ry="12.5" style="stroke:#181818;stroke-width:0.5;" width="43.4434" x="295.1475" y="617.9097"/><text fill="#000000" font-family="sans-serif" font-size="12" lengthAdjust="spacing" textLength="23.4434" x="305.1475" y="639.0483">i++</text><polygon fill="#F1F1F1" points="298.8652,211.9063,334.873,211.9063,346.873,223.9063,334.873,235.9063,298.8652,235.9063,286.8652,223.9063,298.8652,211.9063" style="stroke:#181818;stroke-width:0.5;"/><text fill="#000000" font-family="sans-serif" font-size="11" lengthAdjust="spacing" textLength="19.0083" x="320.8691" y="246.1167">yes</text><text fill="#000000" font-family="sans-serif" font-size="11" lengthAdjust="spacing" textLength="36.0078" x="298.8652" y="227.7144">i &lt;= A</text><rect fill="#F1F1F1" height="33.9688" rx="12.5" ry="12.5" style="stroke:#181818;stroke-width:0.5;" width="84.8516" x="274.4434" y="797.9912"/><text fill="#000000" font-family="sans-serif" font-size="12" lengthAdjust="spacing" textLength="64.8516" x="284.4434" y="819.1299">sumB += j</text><rect fill="#F1F1F1" height="33.9688" rx="12.5" ry="12.5" style="stroke:#181818;stroke-width:0.5;" width="55.291" x="289.2236" y="851.96"/><text fill="#000000" font-family="sans-serif" font-size="12" lengthAdjust="spacing" textLength="35.291" x="299.2236" y="873.0986">kB++</text><rect fill="#F1F1F1" height="33.9688" rx="12.5" ry="12.5" style="stroke:#181818;stroke-width:0.5;" width="65.5566" x="284.0908" y="957.9131"/><text fill="#000000" font-family="sans-serif" font-size="12" lengthAdjust="spacing" textLength="45.5566" x="294.0908" y="979.0518">sB += j</text><polygon fill="#F1F1F1" points="286.9065,909.5107,346.8318,909.5107,358.8318,921.5107,346.8318,933.5107,286.9065,933.5107,274.9065,921.5107,286.9065,909.5107" style="stroke:#181818;stroke-width:0.5;"/><text fill="#000000" font-family="sans-serif" font-size="11" lengthAdjust="spacing" textLength="19.0083" x="320.8691" y="943.7212">yes</text><text fill="#000000" font-family="sans-serif" font-size="11" lengthAdjust="spacing" textLength="59.9253" x="286.9065" y="925.3188">j % 2 == 0</text><polygon fill="#F1F1F1" points="316.8691,1011.8818,328.8691,1023.8818,316.8691,1035.8818,304.8691,1023.8818,316.8691,1011.8818" style="stroke:#181818;stroke-width:0.5;"/><polygon fill="#F1F1F1" points="286.6326,749.5889,347.1057,749.5889,359.1057,761.5889,347.1057,773.5889,286.6326,773.5889,274.6326,761.5889,286.6326,749.5889" style="stroke:#181818;stroke-width:0.5;"/><text fill="#000000" font-family="sans-serif" font-size="11" lengthAdjust="spacing" textLength="19.0083" x="320.8691" y="783.7993">yes</text><text fill="#000000" font-family="sans-serif" font-size="11" lengthAdjust="spacing" textLength="60.4731" x="286.6326" y="765.397">B % j == 0</text><polygon fill="#F1F1F1" points="316.8691,1055.8818,328.8691,1067.8818,316.8691,1079.8818,304.8691,1067.8818,316.8691,1055.8818" style="stroke:#181818;stroke-width:0.5;"/><rect fill="#F1F1F1" height="33.9688" rx="12.5" ry="12.5" style="stroke:#181818;stroke-width:0.5;" width="43.4434" x="295.1475" y="1099.8818"/><text fill="#000000" font-family="sans-serif" font-size="12" lengthAdjust="spacing" textLength="23.4434" x="305.1475" y="1121.0205">j++</text><polygon fill="#F1F1F1" points="298.8545,693.8784,334.8838,693.8784,346.8838,705.8784,334.8838,717.8784,298.8545,717.8784,286.8545,705.8784,298.8545,693.8784" style="stroke:#181818;stroke-width:0.5;"/><text fill="#000000" font-family="sans-serif" font-size="11" lengthAdjust="spacing" textLength="19.0083" x="320.8691" y="728.0889">yes</text><text fill="#000000" font-family="sans-serif" font-size="11" lengthAdjust="spacing" textLength="36.0293" x="298.8545" y="709.6865">j &lt;= B</text><rect fill="#F1F1F1" height="33.9688" rx="12.5" ry="12.5" style="stroke:#181818;stroke-width:0.5;" width="148.4492" x="242.6445" y="1175.8506"/><text fill="#000000" font-family="sans-serif" font-size="12" lengthAdjust="spacing" textLength="128.4492" x="252.6445" y="1196.9893">sum = sumA + sumB</text><rect fill="#F1F1F1" height="33.9688" rx="12.5" ry="12.5" style="stroke:#181818;stroke-width:0.5;" width="260.6621" x="186.5381" y="1229.8193"/><text fill="#000000" font-family="sans-serif" font-size="12" lengthAdjust="spacing" textLength="240.6621" x="196.5381" y="1250.958">&#1042;&#1099;&#1074;&#1077;&#1089;&#1090;&#1080; "&#1089;&#1091;&#1084;&#1084;&#1072; &#1076;&#1077;&#1083;&#1080;&#1090;&#1077;&#1083;&#1077;&#1081; = " + sum</text><rect fill="#F1F1F1" height="33.9688" rx="12.5" ry="12.5" style="stroke:#181818;stroke-width:0.5;" width="89.2695" x="272.2344" y="1283.7881"/><text fill="#000000" font-family="sans-serif" font-size="12" lengthAdjust="spacing" textLength="69.2695" x="282.2344" y="1304.9268">p = kA * kB</text><rect fill="#F1F1F1" height="33.9688" rx="12.5" ry="12.5" style="stroke:#181818;stroke-width:0.5;" width="370.0801" x="131.8291" y="1337.7568"/><text fill="#000000" font-family="sans-serif" font-size="12" lengthAdjust="spacing" textLength="350.0801" x="141.8291" y="1358.8955">&#1042;&#1099;&#1074;&#1077;&#1089;&#1090;&#1080; "&#1087;&#1088;&#1086;&#1080;&#1079;&#1074;&#1077;&#1076;&#1077;&#1085;&#1080;&#1077; &#1082;&#1086;&#1083;&#1080;&#1095;&#1077;&#1089;&#1090;&#1074;&#1072; &#1076;&#1077;&#1083;&#1080;&#1090;&#1077;&#1083;&#1077;&#1081; = " + p</text><rect fill="#F1F1F1" height="33.9688" rx="12.5" ry="12.5" style="stroke:#181818;stroke-width:0.5;" width="100.9121" x="266.4131" y="1391.7256"/><text fill="#000000" font-family="sans-serif" font-size="12" lengthAdjust="spacing" textLength="80.9121" x="276.4131" y="1412.8643">SS = pA + sB</text><rect fill="#F1F1F1" height="33.9688" rx="12.5" ry="12.5" style="stroke:#181818;stroke-width:0.5;" width="611.7383" x="11" y="1445.6943"/><text fill="#000000" font-family="sans-serif" font-size="12" lengthAdjust="spacing" textLength="591.7383" x="21" y="1466.833">&#1042;&#1099;&#1074;&#1077;&#1089;&#1090;&#1080; "&#1089;&#1091;&#1084;&#1084;&#1072; &#1087;&#1088;&#1086;&#1080;&#1079;&#1074;&#1077;&#1076;&#1077;&#1085;&#1080;&#1103; &#1085;&#1077;&#1095;&#1077;&#1090;&#1085;&#1099;&#1093; &#1076;&#1077;&#1083;&#1080;&#1090;&#1077;&#1083;&#1077;&#1081; A &#1080; &#1089;&#1091;&#1084;&#1084;&#1099; &#1095;&#1077;&#1090;&#1085;&#1099;&#1093; &#1076;&#1077;&#1083;&#1080;&#1090;&#1077;&#1083;&#1077;&#1081; B = " + SS</text><rect fill="#F1F1F1" height="33.9688" rx="12.5" ry="12.5" style="stroke:#181818;stroke-width:0.5;" width="67.1504" x="283.2939" y="1499.6631"/><text fill="#000000" font-family="sans-serif" font-size="12" lengthAdjust="spacing" textLength="47.1504" x="293.2939" y="1520.8018">gcd = 0</text><rect fill="#F1F1F1" height="33.9688" rx="12.5" ry="12.5" style="stroke:#181818;stroke-width:0.5;" width="62.8496" x="285.4443" y="1713.4551"/><text fill="#000000" font-family="sans-serif" font-size="12" lengthAdjust="spacing" textLength="42.8496" x="295.4443" y="1734.5938">gcd = i</text><polygon fill="#F1F1F1" points="216.4888,1665.0527,417.2495,1665.0527,429.2495,1677.0527,417.2495,1689.0527,216.4888,1689.0527,204.4888,1677.0527,216.4888,1665.0527" style="stroke:#181818;stroke-width:0.5;"/><text fill="#000000" font-family="sans-serif" font-size="11" lengthAdjust="spacing" textLength="19.0083" x="320.8691" y="1699.2632">yes</text><text fill="#000000" font-family="sans-serif" font-size="11" lengthAdjust="spacing" textLength="200.7607" x="216.4888" y="1680.8608">A % i == 0 &amp;&amp; B % j == 0 &amp;&amp; i == j</text><polygon fill="#F1F1F1" points="316.8691,1771.8262,328.8691,1783.8262,316.8691,1795.8262,304.8691,1783.8262,316.8691,1771.8262" style="stroke:#181818;stroke-width:0.5;"/><rect fill="#F1F1F1" height="33.9688" rx="12.5" ry="12.5" style="stroke:#181818;stroke-width:0.5;" width="43.4434" x="295.1475" y="1815.8262"/><text fill="#000000" font-family="sans-serif" font-size="12" lengthAdjust="spacing" textLength="23.4434" x="305.1475" y="1836.9648">j++</text><polygon fill="#F1F1F1" points="303.4629,1609.3423,330.2754,1609.3423,342.2754,1621.3423,330.2754,1633.3423,303.4629,1633.3423,291.4629,1621.3423,303.4629,1609.3423" style="stroke:#181818;stroke-width:0.5;"/><text fill="#000000" font-family="sans-serif" font-size="11" lengthAdjust="spacing" textLength="19.0083" x="320.8691" y="1643.5527">yes</text><text fill="#000000" font-family="sans-serif" font-size="11" lengthAdjust="spacing" textLength="26.8125" x="303.4629" y="1625.1504">j &lt; B</text><rect fill="#F1F1F1" height="33.9688" rx="12.5" ry="12.5" style="stroke:#181818;stroke-width:0.5;" width="43.4434" x="295.1475" y="1891.7949"/><text fill="#000000" font-family="sans-serif" font-size="12" lengthAdjust="spacing" textLength="23.4434" x="305.1475" y="1912.9336">i++</text><polygon fill="#F1F1F1" points="303.4736,1553.6318,330.2646,1553.6318,342.2646,1565.6318,330.2646,1577.6318,303.4736,1577.6318,291.4736,1565.6318,303.4736,1553.6318" style="stroke:#181818;stroke-width:0.5;"/><text fill="#000000" font-family="sans-serif" font-size="11" lengthAdjust="spacing" textLength="19.0083" x="320.8691" y="1587.8423">yes</text><text fill="#000000" font-family="sans-serif" font-size="11" lengthAdjust="spacing" textLength="26.791" x="303.4736" y="1569.4399">i &lt; A</text><polygon fill="#F1F1F1" points="290.6501,1967.7637,343.0881,1967.7637,355.0881,1979.7637,343.0881,1991.7637,290.6501,1991.7637,278.6501,1979.7637,290.6501,1967.7637" style="stroke:#181818;stroke-width:0.5;"/><text fill="#000000" font-family="sans-serif" font-size="11" lengthAdjust="spacing" textLength="52.438" x="290.6501" y="1983.5718">gcd == 0</text><text fill="#000000" font-family="sans-serif" font-size="11" lengthAdjust="spacing" textLength="19.0083" x="259.6418" y="1977.1694">yes</text><rect fill="#F1F1F1" height="33.9688" rx="12.5" ry="12.5" style="stroke:#181818;stroke-width:0.5;" width="238.6367" x="44.3423" y="2001.7637"/><text fill="#000000" font-family="sans-serif" font-size="12" lengthAdjust="spacing" textLength="218.6367" x="54.3423" y="2022.9023">&#1042;&#1099;&#1074;&#1077;&#1089;&#1090;&#1080; "&#1095;&#1080;&#1089;&#1083;&#1072; &#1074;&#1079;&#1072;&#1080;&#1084;&#1085;&#1086; &#1087;&#1088;&#1086;&#1089;&#1090;&#1099;&#1077;"</text><rect fill="#F1F1F1" height="33.9688" rx="12.5" ry="12.5" style="stroke:#181818;stroke-width:0.5;" width="334.1973" x="302.979" y="2001.7637"/><text fill="#000000" font-family="sans-serif" font-size="12" lengthAdjust="spacing" textLength="314.1973" x="312.979" y="2022.9023">&#1042;&#1099;&#1074;&#1077;&#1089;&#1090;&#1080; "&#1085;&#1072;&#1080;&#1073;&#1086;&#1083;&#1100;&#1096;&#1080;&#1081; &#1086;&#1073;&#1097;&#1080;&#1081; &#1076;&#1077;&#1083;&#1080;&#1090;&#1077;&#1083;&#1100; = " + gcd</text><polygon fill="#F1F1F1" points="316.8691,2041.7324,328.8691,2053.7324,316.8691,2065.7324,304.8691,2053.7324,316.8691,2041.7324" style="stroke:#181818;stroke-width:0.5;"/><ellipse cx="316.8691" cy="2096.7324" fill="none" rx="11" ry="11" style="stroke:#222222;stroke-width:1.0;"/><ellipse cx="316.8691" cy="2096.7324" fill="#222222" rx="6" ry="6" style="stroke:#222222;stroke-width:1.0;"/><line style="stroke:#181818;stroke-width:1.0;" x1="316.8691" x2="316.8691" y1="30" y2="50"/><polygon fill="#181818" points="312.8691,40,316.8691,50,320.8691,40,316.8691,44" style="stroke:#181818;stroke-width:1.0;"/><line style="stroke:#181818;stroke-width:1.0;" x1="316.8691" x2="316.8691" y1="83.9688" y2="103.9688"/><polygon fill="#181818" points="312.8691,93.9688,316.8691,103.9688,320.8691,93.9688,316.8691,97.9688" style="stroke:#181818;stroke-width:1.0;"/><line style="stroke:#181818;stroke-width:1.0;" x1="316.8691" x2="316.8691" y1="137.9375" y2="157.9375"/><polygon fill="#181818" points="312.8691,147.9375,316.8691,157.9375,320.8691,147.9375,316.8691,151.9375" style="stroke:#181818;stroke-width:1.0;"/><line style="stroke:#181818;stroke-width:1.0;" x1="316.8691" x2="316.8691" y1="349.9878" y2="369.9878"/><polygon fill="#181818" points="312.8691,359.9878,316.8691,369.9878,320.8691,359.9878,316.8691,363.9878" style="stroke:#181818;stroke-width:1.0;"/><line style="stroke:#181818;stroke-width:1.0;" x1="316.8691" x2="316.8691" y1="451.5386" y2="475.9409"/><polygon fill="#181818" points="312.8691,465.9409,316.8691,475.9409,320.8691,465.9409,316.8691,469.9409" style="stroke:#181818;stroke-width:1.0;"/><line style="stroke:#181818;stroke-width:1.0;" x1="356.4282" x2="368.4282" y1="439.5386" y2="439.5386"/><polygon fill="#181818" points="364.4282,482.9253,368.4282,492.9253,372.4282,482.9253,368.4282,486.9253" style="stroke:#181818;stroke-width:1.0;"/><line style="stroke:#181818;stroke-width:1.0;" x1="368.4282" x2="368.4282" y1="439.5386" y2="541.9097"/><line style="stroke:#181818;stroke-width:1.0;" x1="368.4282" x2="328.8691" y1="541.9097" y2="541.9097"/><polygon fill="#181818" points="338.8691,537.9097,328.8691,541.9097,338.8691,545.9097,334.8691,541.9097" style="stroke:#181818;stroke-width:1.0;"/><line style="stroke:#181818;stroke-width:1.0;" x1="316.8691" x2="316.8691" y1="509.9097" y2="529.9097"/><polygon fill="#181818" points="312.8691,519.9097,316.8691,529.9097,320.8691,519.9097,316.8691,523.9097" style="stroke:#181818;stroke-width:1.0;"/><line style="stroke:#181818;stroke-width:1.0;" x1="316.8691" x2="316.8691" y1="403.9565" y2="427.5386"/><polygon fill="#181818" points="312.8691,417.5386,316.8691,427.5386,320.8691,417.5386,316.8691,421.5386" style="stroke:#181818;stroke-width:1.0;"/><line style="stroke:#181818;stroke-width:1.0;" x1="316.8691" x2="316.8691" y1="291.6167" y2="316.019"/><polygon fill="#181818" points="312.8691,306.019,316.8691,316.019,320.8691,306.019,316.8691,310.019" style="stroke:#181818;stroke-width:1.0;"/><line style="stroke:#181818;stroke-width:1.0;" x1="359.095" x2="380.291" y1="279.6167" y2="279.6167"/><polygon fill="#181818" points="376.291,413.9565,380.291,423.9565,384.291,413.9565,380.291,417.9565" style="stroke:#181818;stroke-width:1.0;"/><line style="stroke:#181818;stroke-width:1.0;" x1="380.291" x2="380.291" y1="279.6167" y2="585.9097"/><line style="stroke:#181818;stroke-width:1.0;" x1="380.291" x2="328.8691" y1="585.9097" y2="585.9097"/><polygon fill="#181818" points="338.8691,581.9097,328.8691,585.9097,338.8691,589.9097,334.8691,585.9097" style="stroke:#181818;stroke-width:1.0;"/><line style="stroke:#181818;stroke-width:1.0;" x1="316.8691" x2="316.8691" y1="553.9097" y2="573.9097"/><polygon fill="#181818" points="312.8691,563.9097,316.8691,573.9097,320.8691,563.9097,316.8691,567.9097" style="stroke:#181818;stroke-width:1.0;"/><line style="stroke:#181818;stroke-width:1.0;" x1="316.8691" x2="316.8691" y1="597.9097" y2="617.9097"/><polygon fill="#181818" points="312.8691,607.9097,316.8691,617.9097,320.8691,607.9097,316.8691,611.9097" style="stroke:#181818;stroke-width:1.0;"/><line style="stroke:#181818;stroke-width:1.0;" x1="316.8691" x2="316.8691" y1="235.9063" y2="267.6167"/><polygon fill="#181818" points="312.8691,257.6167,316.8691,267.6167,320.8691,257.6167,316.8691,261.6167" style="stroke:#181818;stroke-width:1.0;"/><line style="stroke:#181818;stroke-width:1.0;" x1="316.8691" x2="316.8691" y1="651.8784" y2="661.8784"/><line style="stroke:#181818;stroke-width:1.0;" x1="316.8691" x2="404.291" y1="661.8784" y2="661.8784"/><polygon fill="#181818" points="400.291,450.0386,404.291,440.0386,408.291,450.0386,404.291,446.0386" style="stroke:#181818;stroke-width:1.0;"/><line style="stroke:#181818;stroke-width:1.0;" x1="404.291" x2="404.291" y1="223.9063" y2="661.8784"/><line style="stroke:#181818;stroke-width:1.0;" x1="404.291" x2="346.873" y1="223.9063" y2="223.9063"/><polygon fill="#181818" points="356.873,219.9063,346.873,223.9063,356.873,227.9063,352.873,223.9063" style="stroke:#181818;stroke-width:1.0;"/><line style="stroke:#181818;stroke-width:1.0;" x1="286.8652" x2="252.4551" y1="223.9063" y2="223.9063"/><polygon fill="#181818" points="248.4551,436.0386,252.4551,446.0386,256.4551,436.0386,252.4551,440.0386" style="stroke:#181818;stroke-width:1.0;"/><line style="stroke:#181818;stroke-width:1.0;" x1="252.4551" x2="252.4551" y1="223.9063" y2="673.8784"/><line style="stroke:#181818;stroke-width:1.0;" x1="252.4551" x2="316.8691" y1="673.8784" y2="673.8784"/><line style="stroke:#181818;stroke-width:1.0;" x1="316.8691" x2="316.8691" y1="673.8784" y2="693.8784"/><polygon fill="#181818" points="312.8691,683.8784,316.8691,693.8784,320.8691,683.8784,316.8691,687.8784" style="stroke:#181818;stroke-width:1.0;"/><line style="stroke:#181818;stroke-width:1.0;" x1="316.8691" x2="316.8691" y1="191.9063" y2="211.9063"/><polygon fill="#181818" points="312.8691,201.9063,316.8691,211.9063,320.8691,201.9063,316.8691,205.9063" style="stroke:#181818;stroke-width:1.0;"/><line style="stroke:#181818;stroke-width:1.0;" x1="316.8691" x2="316.8691" y1="831.96" y2="851.96"/><polygon fill="#181818" points="312.8691,841.96,316.8691,851.96,320.8691,841.96,316.8691,845.96" style="stroke:#181818;stroke-width:1.0;"/><line style="stroke:#181818;stroke-width:1.0;" x1="316.8691" x2="316.8691" y1="933.5107" y2="957.9131"/><polygon fill="#181818" points="312.8691,947.9131,316.8691,957.9131,320.8691,947.9131,316.8691,951.9131" style="stroke:#181818;stroke-width:1.0;"/><line style="stroke:#181818;stroke-width:1.0;" x1="358.8318" x2="370.8318" y1="921.5107" y2="921.5107"/><polygon fill="#181818" points="366.8318,964.8975,370.8318,974.8975,374.8318,964.8975,370.8318,968.8975" style="stroke:#181818;stroke-width:1.0;"/><line style="stroke:#181818;stroke-width:1.0;" x1="370.8318" x2="370.8318" y1="921.5107" y2="1023.8818"/><line style="stroke:#181818;stroke-width:1.0;" x1="370.8318" x2="328.8691" y1="1023.8818" y2="1023.8818"/><polygon fill="#181818" points="338.8691,1019.8818,328.8691,1023.8818,338.8691,1027.8818,334.8691,1023.8818" style="stroke:#181818;stroke-width:1.0;"/><line style="stroke:#181818;stroke-width:1.0;" x1="316.8691" x2="316.8691" y1="991.8818" y2="1011.8818"/><polygon fill="#181818" points="312.8691,1001.8818,316.8691,1011.8818,320.8691,1001.8818,316.8691,1005.8818" style="stroke:#181818;stroke-width:1.0;"/><line style="stroke:#181818;stroke-width:1.0;" x1="316.8691" x2="316.8691" y1="885.9287" y2="909.5107"/><polygon fill="#181818" points="312.8691,899.5107,316.8691,909.5107,320.8691,899.5107,316.8691,903.5107" style="stroke:#181818;stroke-width:1.0;"/><line style="stroke:#181818;stroke-width:1.0;" x1="316.8691" x2="316.8691" y1="773.5889" y2="797.9912"/><polygon fill="#181818" points="312.8691,787.9912,316.8691,797.9912,320.8691,787.9912,316.8691,791.9912" style="stroke:#181818;stroke-width:1.0;"/><line style="stroke:#181818;stroke-width:1.0;" x1="359.1057" x2="381.6475" y1="761.5889" y2="761.5889"/><polygon fill="#181818" points="377.6475,895.9287,381.6475,905.9287,385.6475,895.9287,381.6475,899.9287" style="stroke:#181818;stroke-width:1.0;"/><line style="stroke:#181818;stroke-width:1.0;" x1="381.6475" x2="381.6475" y1="761.5889" y2="1067.8818"/><line style="stroke:#181818;stroke-width:1.0;" x1="381.6475" x2="328.8691" y1="1067.8818" y2="1067.8818"/><polygon fill="#181818" points="338.8691,1063.8818,328.8691,1067.8818,338.8691,1071.8818,334.8691,1067.8818" style="stroke:#181818;stroke-width:1.0;"/><line style="stroke:#181818;stroke-width:1.0;" x1="316.8691" x2="316.8691" y1="1035.8818" y2="1055.8818"/><polygon fill="#181818" points="312.8691,1045.8818,316.8691,1055.8818,320.8691,1045.8818,316.8691,1049.8818" style="stroke:#181818;stroke-width:1.0;"/><line style="stroke:#181818;stroke-width:1.0;" x1="316.8691" x2="316.8691" y1="1079.8818" y2="1099.8818"/><polygon fill="#181818" points="312.8691,1089.8818,316.8691,1099.8818,320.8691,1089.8818,316.8691,1093.8818" style="stroke:#181818;stroke-width:1.0;"/><line style="stroke:#181818;stroke-width:1.0;" x1="316.8691" x2="316.8691" y1="717.8784" y2="749.5889"/><polygon fill="#181818" points="312.8691,739.5889,316.8691,749.5889,320.8691,739.5889,316.8691,743.5889" style="stroke:#181818;stroke-width:1.0;"/><line style="stroke:#181818;stroke-width:1.0;" x1="316.8691" x2="316.8691" y1="1133.8506" y2="1143.8506"/><line style="stroke:#181818;stroke-width:1.0;" x1="316.8691" x2="405.6475" y1="1143.8506" y2="1143.8506"/><polygon fill="#181818" points="401.6475,932.0107,405.6475,922.0107,409.6475,932.0107,405.6475,928.0107" style="stroke:#181818;stroke-width:1.0;"/><line style="stroke:#181818;stroke-width:1.0;" x1="405.6475" x2="405.6475" y1="705.8784" y2="1143.8506"/><line style="stroke:#181818;stroke-width:1.0;" x1="405.6475" x2="346.8838" y1="705.8784" y2="705.8784"/><polygon fill="#181818" points="356.8838,701.8784,346.8838,705.8784,356.8838,709.8784,352.8838,705.8784" style="stroke:#181818;stroke-width:1.0;"/><line style="stroke:#181818;stroke-width:1.0;" x1="286.8545" x2="252.0908" y1="705.8784" y2="705.8784"/><polygon fill="#181818" points="248.0908,918.0107,252.0908,928.0107,256.0908,918.0107,252.0908,922.0107" style="stroke:#181818;stroke-width:1.0;"/><line style="stroke:#181818;stroke-width:1.0;" x1="252.0908" x2="252.0908" y1="705.8784" y2="1155.8506"/><line style="stroke:#181818;stroke-width:1.0;" x1="252.0908" x2="316.8691" y1="1155.8506" y2="1155.8506"/><line style="stroke:#181818;stroke-width:1.0;" x1="316.8691" x2="316.8691" y1="1155.8506" y2="1175.8506"/><polygon fill="#181818" points="312.8691,1165.8506,316.8691,1175.8506,320.8691,1165.8506,316.8691,1169.8506" style="stroke:#181818;stroke-width:1.0;"/><line style="stroke:#181818;stroke-width:1.0;" x1="316.8691" x2="316.8691" y1="1209.8193" y2="1229.8193"/><polygon fill="#181818" points="312.8691,1219.8193,316.8691,1229.8193,320.8691,1219.8193,316.8691,1223.8193" style="stroke:#181818;stroke-width:1.0;"/><line style="stroke:#181818;stroke-width:1.0;" x1="316.8691" x2="316.8691" y1="1263.7881" y2="1283.7881"/><polygon fill="#181818" points="312.8691,1273.7881,316.8691,1283.7881,320.8691,1273.7881,316.8691,1277.7881" style="stroke:#181818;stroke-width:1.0;"/><line style="stroke:#181818;stroke-width:1.0;" x1="316.8691" x2="316.8691" y1="1317.7568" y2="1337.7568"/><polygon fill="#181818" points="312.8691,1327.7568,316.8691,1337.7568,320.8691,1327.7568,316.8691,1331.7568" style="stroke:#181818;stroke-width:1.0;"/><line style="stroke:#181818;stroke-width:1.0;" x1="316.8691" x2="316.8691" y1="1371.7256" y2="1391.7256"/><polygon fill="#181818" points="312.8691,1381.7256,316.8691,1391.7256,320.8691,1381.7256,316.8691,1385.7256" style="stroke:#181818;stroke-width:1.0;"/><line style="stroke:#181818;stroke-width:1.0;" x1="316.8691" x2="316.8691" y1="1425.6943" y2="1445.6943"/><polygon fill="#181818" points="312.8691,1435.6943,316.8691,1445.6943,320.8691,1435.6943,316.8691,1439.6943" style="stroke:#181818;stroke-width:1.0;"/><line style="stroke:#181818;stroke-width:1.0;" x1="316.8691" x2="316.8691" y1="1479.6631" y2="1499.6631"/><polygon fill="#181818" points="312.8691,1489.6631,316.8691,1499.6631,320.8691,1489.6631,316.8691,1493.6631" style="stroke:#181818;stroke-width:1.0;"/><line style="stroke:#181818;stroke-width:1.0;" x1="316.8691" x2="316.8691" y1="1689.0527" y2="1713.4551"/><polygon fill="#181818" points="312.8691,1703.4551,316.8691,1713.4551,320.8691,1703.4551,316.8691,1707.4551" style="stroke:#181818;stroke-width:1.0;"/><line style="stroke:#181818;stroke-width:1.0;" x1="429.2495" x2="441.2495" y1="1677.0527" y2="1677.0527"/><polygon fill="#181818" points="437.2495,1720.4395,441.2495,1730.4395,445.2495,1720.4395,441.2495,1724.4395" style="stroke:#181818;stroke-width:1.0;"/><line style="stroke:#181818;stroke-width:1.0;" x1="441.2495" x2="441.2495" y1="1677.0527" y2="1783.8262"/><line style="stroke:#181818;stroke-width:1.0;" x1="441.2495" x2="328.8691" y1="1783.8262" y2="1783.8262"/><polygon fill="#181818" points="338.8691,1779.8262,328.8691,1783.8262,338.8691,1787.8262,334.8691,1783.8262" style="stroke:#181818;stroke-width:1.0;"/><line style="stroke:#181818;stroke-width:1.0;" x1="316.8691" x2="316.8691" y1="1747.4238" y2="1771.8262"/><polygon fill="#181818" points="312.8691,1761.8262,316.8691,1771.8262,320.8691,1761.8262,316.8691,1765.8262" style="stroke:#181818;stroke-width:1.0;"/><line style="stroke:#181818;stroke-width:1.0;" x1="316.8691" x2="316.8691" y1="1795.8262" y2="1815.8262"/><polygon fill="#181818" points="312.8691,1805.8262,316.8691,1815.8262,320.8691,1805.8262,316.8691,1809.8262" style="stroke:#181818;stroke-width:1.0;"/><line style="stroke:#181818;stroke-width:1.0;" x1="316.8691" x2="316.8691" y1="1633.3423" y2="1665.0527"/><polygon fill="#181818" points="312.8691,1655.0527,316.8691,1665.0527,320.8691,1655.0527,316.8691,1659.0527" style="stroke:#181818;stroke-width:1.0;"/><line style="stroke:#181818;stroke-width:1.0;" x1="316.8691" x2="316.8691" y1="1849.7949" y2="1859.7949"/><line style="stroke:#181818;stroke-width:1.0;" x1="316.8691" x2="453.2495" y1="1859.7949" y2="1859.7949"/><polygon fill="#181818" points="449.2495,1756.5215,453.2495,1746.5215,457.2495,1756.5215,453.2495,1752.5215" style="stroke:#181818;stroke-width:1.0;"/><line style="stroke:#181818;stroke-width:1.0;" x1="453.2495" x2="453.2495" y1="1621.3423" y2="1859.7949"/><line style="stroke:#181818;stroke-width:1.0;" x1="453.2495" x2="342.2754" y1="1621.3423" y2="1621.3423"/><polygon fill="#181818" points="352.2754,1617.3423,342.2754,1621.3423,352.2754,1625.3423,348.2754,1621.3423" style="stroke:#181818;stroke-width:1.0;"/><line style="stroke:#181818;stroke-width:1.0;" x1="291.4629" x2="192.4888" y1="1621.3423" y2="1621.3423"/><polygon fill="#181818" points="188.4888,1742.5215,192.4888,1752.5215,196.4888,1742.5215,192.4888,1746.5215" style="stroke:#181818;stroke-width:1.0;"/><line style="stroke:#181818;stroke-width:1.0;" x1="192.4888" x2="192.4888" y1="1621.3423" y2="1871.7949"/><line style="stroke:#181818;stroke-width:1.0;" x1="192.4888" x2="316.8691" y1="1871.7949" y2="1871.7949"/><line style="stroke:#181818;stroke-width:1.0;" x1="316.8691" x2="316.8691" y1="1871.7949" y2="1891.7949"/><polygon fill="#181818" points="312.8691,1881.7949,316.8691,1891.7949,320.8691,1881.7949,316.8691,1885.7949" style="stroke:#181818;stroke-width:1.0;"/><line style="stroke:#181818;stroke-width:1.0;" x1="316.8691" x2="316.8691" y1="1577.6318" y2="1609.3423"/><polygon fill="#181818" points="312.8691,1599.3423,316.8691,1609.3423,320.8691,1599.3423,316.8691,1603.3423" style="stroke:#181818;stroke-width:1.0;"/><line style="stroke:#181818;stroke-width:1.0;" x1="316.8691" x2="316.8691" y1="1925.7637" y2="1935.7637"/><line style="stroke:#181818;stroke-width:1.0;" x1="316.8691" x2="465.2495" y1="1935.7637" y2="1935.7637"/><polygon fill="#181818" points="461.2495,1772.6035,465.2495,1762.6035,469.2495,1772.6035,465.2495,1768.6035" style="stroke:#181818;stroke-width:1.0;"/><line style="stroke:#181818;stroke-width:1.0;" x1="465.2495" x2="465.2495" y1="1565.6318" y2="1935.7637"/><line style="stroke:#181818;stroke-width:1.0;" x1="465.2495" x2="342.2646" y1="1565.6318" y2="1565.6318"/><polygon fill="#181818" points="352.2646,1561.6318,342.2646,1565.6318,352.2646,1569.6318,348.2646,1565.6318" style="stroke:#181818;stroke-width:1.0;"/><line style="stroke:#181818;stroke-width:1.0;" x1="291.4736" x2="168.4888" y1="1565.6318" y2="1565.6318"/><polygon fill="#181818" points="164.4888,1758.6035,168.4888,1768.6035,172.4888,1758.6035,168.4888,1762.6035" style="stroke:#181818;stroke-width:1.0;"/><line style="stroke:#181818;stroke-width:1.0;" x1="168.4888" x2="168.4888" y1="1565.6318" y2="1947.7637"/><line style="stroke:#181818;stroke-width:1.0;" x1="168.4888" x2="316.8691" y1="1947.7637" y2="1947.7637"/><line style="stroke:#181818;stroke-width:1.0;" x1="316.8691" x2="316.8691" y1="1947.7637" y2="1967.7637"/><polygon fill="#181818" points="312.8691,1957.7637,316.8691,1967.7637,320.8691,1957.7637,316.8691,1961.7637" style="stroke:#181818;stroke-width:1.0;"/><line style="stroke:#181818;stroke-width:1.0;" x1="316.8691" x2="316.8691" y1="1533.6318" y2="1553.6318"/><polygon fill="#181818" points="312.8691,1543.6318,316.8691,1553.6318,320.8691,1543.6318,316.8691,1547.6318" style="stroke:#181818;stroke-width:1.0;"/><line style="stroke:#181818;stroke-width:1.0;" x1="278.6501" x2="163.6606" y1="1979.7637" y2="1979.7637"/><line style="stroke:#181818;stroke-width:1.0;" x1="163.6606" x2="163.6606" y1="1979.7637" y2="2001.7637"/><polygon fill="#181818" points="159.6606,1991.7637,163.6606,2001.7637,167.6606,1991.7637,163.6606,1995.7637" style="stroke:#181818;stroke-width:1.0;"/><line style="stroke:#181818;stroke-width:1.0;" x1="355.0881" x2="470.0776" y1="1979.7637" y2="1979.7637"/><line style="stroke:#181818;stroke-width:1.0;" x1="470.0776" x2="470.0776" y1="1979.7637" y2="2001.7637"/><polygon fill="#181818" points="466.0776,1991.7637,470.0776,2001.7637,474.0776,1991.7637,470.0776,1995.7637" style="stroke:#181818;stroke-width:1.0;"/><line style="stroke:#181818;stroke-width:1.0;" x1="163.6606" x2="163.6606" y1="2035.7324" y2="2053.7324"/><line style="stroke:#181818;stroke-width:1.0;" x1="163.6606" x2="304.8691" y1="2053.7324" y2="2053.7324"/><polygon fill="#181818" points="294.8691,2049.7324,304.8691,2053.7324,294.8691,2057.7324,298.8691,2053.7324" style="stroke:#181818;stroke-width:1.0;"/><line style="stroke:#181818;stroke-width:1.0;" x1="470.0776" x2="470.0776" y1="2035.7324" y2="2053.7324"/><line style="stroke:#181818;stroke-width:1.0;" x1="470.0776" x2="328.8691" y1="2053.7324" y2="2053.7324"/><polygon fill="#181818" points="338.8691,2049.7324,328.8691,2053.7324,338.8691,2057.7324,334.8691,2053.7324" style="stroke:#181818;stroke-width:1.0;"/><line style="stroke:#181818;stroke-width:1.0;" x1="316.8691" x2="316.8691" y1="2065.7324" y2="2085.7324"/><polygon fill="#181818" points="312.8691,2075.7324,316.8691,2085.7324,320.8691,2075.7324,316.8691,2079.7324" style="stroke:#181818;stroke-width:1.0;"/><!--SRC=[XLBRJi9047tlLuma4Yu9AJw2VMX_WIymKcGBOcCnnZSlCMWWCV5BWDY82lWBkt_acTroaHPDavtTxPmvPsTEr3-vx5jMJRxAgOpLdRgNCt89YqU5gbsfL6tRBjQH4LsTk-GGWeVGuNs7Tn4lTjsgXOWXNrUHVjqMNPyAWeuTSeia8YhS-57H8X8jAhXqI88Su8hKR_kzzKyYmrDsIDJDkUEMosRBI07a4Hra8P4B-j8QwVUQecLjOarm8PoqjhN4W2LwAOaUY8Bz4ZsM6AmaUjiI0otHsICnsaQc90Q_9JAJwJbQebjVvr6fuTQmSeWFSevlJF9Dnl9Bpl23Oom_WCuPACymD9ChON8PXUItkfLBEPFlVAjhBN2AINxYciiEakJfNrmXCpKQnWsW_azp9gjw8OHOCzxBXHggnon6xTHLCJMa__AzH6EZmIBFJfl6knktxfXruv4TY-pwcF9vsbY6J_e-oBA0eTrnwMhu-iQCFsrPvjJejBdIBHxWvNTuDreyHNF7QF4SFLqc7USy8E8S2BgHdrK2sOoQyFJLI3rX_q4uJDIpsVvgi1ebpOL2BHhligB-HVW3]--></g></svg>